<svg width="200" height="176" viewBox="0 0 200 176" fill="none" xmlns="http://www.w3.org/2000/svg">
<g clip-path="url(#clip0_106_18)">
<path d="M150.015 93.8326C156.196 93.8326 162.239 95.6656 167.378 99.0997C172.518 102.534 176.523 107.415 178.889 113.126C181.254 118.836 181.873 125.12 180.667 131.183C179.461 137.245 176.485 142.814 172.114 147.185C167.743 151.555 162.175 154.532 156.112 155.738C150.05 156.944 143.766 156.325 138.055 153.959C132.344 151.594 127.463 147.588 124.029 142.449C120.595 137.309 118.762 131.267 118.762 125.085C118.762 120.981 119.571 116.917 121.141 113.126C122.712 109.334 125.014 105.888 127.916 102.986C130.818 100.084 134.263 97.7822 138.055 96.2116C141.847 94.641 145.911 93.8326 150.015 93.8326M150.015 75.0809C140.125 75.0809 130.457 78.0136 122.234 83.5082C114.011 89.0028 107.602 96.8124 103.817 105.95C100.032 115.087 99.0418 125.141 100.971 134.841C102.901 144.541 107.663 153.451 114.656 160.444C121.65 167.437 130.56 172.2 140.26 174.129C149.96 176.059 160.014 175.068 169.151 171.284C178.288 167.499 186.098 161.09 191.592 152.866C197.087 144.643 200.02 134.975 200.02 125.085C200.02 111.823 194.751 99.1046 185.374 89.7269C175.996 80.3492 163.277 75.0809 150.015 75.0809V75.0809ZM144.077 2.57437L108.136 38.5151C107.348 39.299 106.722 40.2305 106.294 41.2562C105.866 42.282 105.644 43.3821 105.642 44.4936C105.636 46.7383 106.522 48.8935 108.105 50.485C109.688 52.0764 111.839 52.9738 114.083 52.9796C116.328 52.9855 118.483 52.0994 120.075 50.5162L150.015 20.576L180.018 50.5162C180.787 51.3821 181.726 52.0816 182.775 52.5717C183.825 53.0618 184.964 53.3323 186.122 53.3663C187.28 53.4004 188.432 53.1975 189.509 52.77C190.586 52.3424 191.564 51.6993 192.383 50.8802C193.202 50.0611 193.845 49.0831 194.273 48.0064C194.7 46.9298 194.903 45.7771 194.869 44.6191C194.835 43.4612 194.564 42.3224 194.074 41.2727C193.584 40.2231 192.885 39.2847 192.019 38.5151L156.266 2.57437C155.473 1.75973 154.526 1.11219 153.479 0.670018C152.432 0.227849 151.308 3.05176e-05 150.171 3.05176e-05C149.035 3.05176e-05 147.91 0.227849 146.863 0.670018C145.817 1.11219 144.869 1.75973 144.077 2.57437V2.57437Z" fill="#51C75B"/>
<path d="M150.078 9.88751C156.328 9.88751 159.453 13.0128 159.453 19.2634V83.1441C159.453 89.3947 156.328 92.52 150.078 92.52C143.827 92.52 140.702 89.3947 140.702 83.1441V19.2634C140.702 13.0128 143.827 9.88751 150.078 9.88751V9.88751Z" fill="#51C75B"/>
<path d="M50.0059 19.2009C56.1871 19.2009 62.2296 21.0338 67.3691 24.4679C72.5086 27.902 76.5143 32.783 78.8798 38.4937C81.2452 44.2044 81.8641 50.4884 80.6582 56.5508C79.4523 62.6133 76.4758 68.182 72.105 72.5528C67.7342 76.9236 62.1655 79.9001 56.103 81.106C50.0406 82.3119 43.7567 81.693 38.046 79.3275C32.3353 76.9621 27.4543 72.9563 24.0201 67.8168C20.586 62.6773 18.7531 56.6349 18.7531 50.4537C18.7531 46.3495 19.5615 42.2855 21.1321 38.4937C22.7027 34.702 25.0047 31.2567 27.9068 28.3546C30.8089 25.4525 34.2542 23.1504 38.046 21.5798C41.8378 20.0092 45.9017 19.2009 50.0059 19.2009M50.0059 0.449158C40.116 0.449158 30.4481 3.38187 22.2249 8.87644C14.0017 14.371 7.59249 22.1806 3.80776 31.3178C0.0230394 40.4549 -0.967217 50.5092 0.962219 60.2091C2.89165 69.909 7.65412 78.819 14.6474 85.8122C21.6406 92.8055 30.5506 97.568 40.2505 99.4974C49.9505 101.427 60.0047 100.437 69.1418 96.6518C78.279 92.8671 86.0886 86.4579 91.5832 78.2347C97.0777 70.0115 100.01 60.3436 100.01 50.4537C100.01 43.887 98.717 37.3846 96.2041 31.3178C93.6911 25.2509 90.0078 19.7385 85.3645 15.0951C80.7211 10.4518 75.2087 6.76849 69.1418 4.25553C63.075 1.74256 56.5726 0.449158 50.0059 0.449158V0.449158Z" fill="#4C4A58"/>
<path d="M49.8809 175.34C43.6304 175.34 40.5051 172.215 40.5051 165.964V93.5826C40.5051 87.332 43.6304 84.2068 49.8809 84.2068C56.1315 84.2068 59.2568 87.332 59.2568 93.5826V165.964C59.2568 172.215 56.1315 175.34 49.8809 175.34Z" fill="#4C4A58"/>
<path d="M6.12695 129.773C6.12695 123.523 9.25224 120.398 15.5028 120.398H84.259C90.5096 120.398 93.6349 123.523 93.6349 129.773C93.6349 136.024 90.5096 139.149 84.259 139.149H15.5028C9.25224 139.149 6.12695 136.024 6.12695 129.773V129.773Z" fill="#4C4A58"/>
</g>
<defs>
<clipPath id="clip0_106_18">
<rect width="200" height="175.34" fill="white"/>
</clipPath>
</defs>
</svg>
