<svg width="44" height="35" viewBox="0 0 44 35" fill="none" xmlns="http://www.w3.org/2000/svg">
<g clip-path="url(#clip0_107_38)">
<path d="M16.7159 13.234C16.5532 13.2792 16.3809 13.2759 16.22 13.2246C16.0592 13.1733 15.9168 13.0761 15.8104 12.9451C15.7773 12.9052 15.6587 12.7923 15.5628 12.7014C14.9221 12.0916 13.5881 10.8221 13.462 9.02055C13.4598 8.99077 13.4592 8.9609 13.4601 8.93106C13.4868 8.11047 13.7625 7.78874 14.2962 7.45085C14.3123 7.44069 14.3286 7.43105 14.3453 7.42192C14.7959 7.17753 15.2728 6.98532 15.7669 6.84902C20.1309 5.63879 25.4394 8.57948 25.6653 8.70449C25.8116 8.78659 25.9309 8.90936 26.0089 9.05791C26.0868 9.20646 26.12 9.37441 26.1044 9.54143C26.0888 9.70845 26.0251 9.86736 25.921 9.99892C25.8169 10.1305 25.6769 10.229 25.518 10.2826L16.7602 13.2203L16.7159 13.234Z" fill="#FCCE0B"/>
<path d="M15.9987 7.6848C20.068 6.55627 25.2406 9.46089 25.2406 9.46089L16.4845 12.3981C16.1487 11.9823 14.4539 10.7733 14.3259 8.9583C14.3426 8.44739 14.4446 8.38176 14.7592 8.18245C15.152 7.96976 15.5679 7.80279 15.9987 7.6848M15.5352 6.01327C14.9771 6.16684 14.4384 6.38357 13.9295 6.65926C13.8962 6.67751 13.8634 6.69679 13.8313 6.71711C13.5971 6.86576 13.2429 7.08955 12.9676 7.52184C12.6589 8.00707 12.6048 8.51442 12.5922 8.90223C12.5906 8.96185 12.5921 9.02151 12.5967 9.08097C12.7462 11.2167 14.2446 12.6426 14.9653 13.3266C15.0313 13.3893 15.1201 13.4741 15.1548 13.5099C15.3685 13.7653 15.6513 13.9538 15.9694 14.0528C16.2874 14.1518 16.6272 14.1572 16.9482 14.0683C16.9777 14.0601 17.0073 14.051 17.0369 14.041L25.7929 11.1037C26.1112 10.9969 26.3917 10.8 26.6002 10.5369C26.8088 10.2738 26.9366 9.95585 26.968 9.62159C26.9994 9.28732 26.9331 8.95112 26.7772 8.65378C26.6213 8.35643 26.3825 8.11073 26.0897 7.94646C24.9992 7.36253 23.8586 6.87776 22.6814 6.49801C21.5216 6.12122 20.3983 5.87111 19.3445 5.75832C17.9561 5.61189 16.6747 5.69724 15.5352 6.01327V6.01327Z" fill="#434E52"/>
<path d="M22.5595 29.5004C22.0658 29.6385 21.5579 29.7198 21.0458 29.7429C21.0268 29.7436 21.0078 29.7438 20.9888 29.7434C20.3573 29.7286 19.9553 29.5948 19.5098 28.9052C19.4936 28.8801 19.4788 28.8542 19.4653 28.8275C18.6463 27.2181 19.1361 25.4433 19.3703 24.5904C19.4056 24.4631 19.4489 24.3044 19.4569 24.2536C19.4806 24.0864 19.5526 23.9299 19.664 23.803C19.7755 23.6762 19.9215 23.5846 20.0842 23.5396L20.1289 23.5272L29.1471 21.5352C29.3109 21.4993 29.4817 21.5117 29.6386 21.5708C29.7956 21.63 29.9321 21.7334 30.0315 21.8685C30.1308 22.0037 30.1889 22.1647 30.1986 22.3322C30.2083 22.4996 30.1693 22.6663 30.0862 22.812C29.9612 23.0348 26.9234 28.2902 22.5595 29.5004Z" fill="#FCCE0B"/>
<path d="M20.3166 24.3743L29.3348 22.3823C29.3348 22.3823 26.3987 27.5356 22.3277 28.6646C21.8976 28.7854 21.4552 28.8565 21.0089 28.8765C20.6366 28.8677 20.5155 28.8643 20.2379 28.4346C19.4129 26.8129 20.2428 24.9033 20.3166 24.3743M19.853 22.7028C19.5321 22.7919 19.2436 22.9715 19.022 23.2201C18.8004 23.4688 18.6551 23.776 18.6034 24.1051C18.592 24.1532 18.5597 24.272 18.5354 24.3597C18.271 25.3178 17.721 27.3118 18.6925 29.2214C18.7192 29.2747 18.7486 29.3267 18.7806 29.377C18.9912 29.7029 19.2989 30.1099 19.8134 30.3668C20.2714 30.5953 20.6897 30.6058 20.9682 30.6118C21.0062 30.6126 21.0442 30.6123 21.0822 30.6108C21.6604 30.585 22.2338 30.4933 22.7912 30.3375C23.9312 30.0214 25.0739 29.4345 26.1865 28.5913C27.0321 27.9518 27.8661 27.1602 28.6658 26.2387C29.4792 25.3068 30.2073 24.3038 30.8412 23.2417C31.0075 22.95 31.0856 22.6164 31.066 22.2812C31.0463 21.9461 30.9299 21.6238 30.7307 21.3536C30.5316 21.0833 30.2583 20.8766 29.944 20.7587C29.6297 20.6407 29.2879 20.6164 28.9601 20.6888L19.9444 22.6801C19.9147 22.6883 19.884 22.6942 19.8543 22.7024L19.853 22.7028Z" fill="#434E52"/>
<path d="M26.9414 25.1463C21.7738 26.5794 16.4429 24.8401 13.0603 23.2572C12.865 24.7271 11.7669 25.9699 10.7473 26.8292C9.52729 27.8578 8.22448 28.5216 8.00172 28.6319C7.77334 28.7635 7.5308 28.8688 7.27874 28.9458C6.52906 29.1537 6.15461 28.7626 6.02799 28.5835C5.54405 27.9013 6.11985 27.0729 6.4304 26.6268C7.21169 25.5024 7.00301 22.7459 6.85303 21.7394C6.31486 20.4333 5.09407 18.2706 3.97356 17.7677C3.47884 17.5449 2.55873 17.1318 2.62086 16.2978C2.63738 16.0799 2.75706 15.5507 3.50633 15.343C3.76206 15.2792 4.02419 15.2445 4.28772 15.2397C4.5355 15.2196 5.99407 15.1175 7.57008 15.3707C8.88652 15.5821 10.4675 16.082 11.3925 17.2417C13.4769 14.1435 17.1504 9.9062 22.3179 8.47312C25.7546 7.52004 29.288 7.22554 32.2665 7.64381C33.75 7.85209 35.0673 8.22749 36.1824 8.75935C37.3685 9.32506 38.2966 10.0541 38.9384 10.926C39.0377 11.0607 39.0959 11.2213 39.106 11.3883C39.116 11.5554 39.0776 11.7218 38.9952 11.8675L38.3779 12.9585L39.4935 13.5897C39.6372 13.6711 39.7547 13.7919 39.8321 13.9379C39.9095 14.0839 39.9436 14.2489 39.9303 14.4136C39.8417 15.4975 39.4307 16.6069 38.709 17.7111C38.0317 18.7477 37.0967 19.7545 35.9302 20.7035C33.5889 22.6111 30.3981 24.1877 26.9414 25.1463V25.1463Z" fill="#FCCE0B"/>
<path d="M22.549 9.30819C29.4804 7.38595 35.977 8.36989 38.2396 11.4398L37.1953 13.2856L39.0667 14.3444C38.7545 18.1562 33.676 22.3786 26.7099 24.3105C20.9728 25.9015 14.9318 23.3183 12.0517 21.785C12.0701 21.8789 12.0945 21.9815 12.1265 22.0968C13.0029 25.2573 7.59352 27.8676 7.59352 27.8676C7.42072 27.9683 7.23759 28.05 7.04729 28.1114C6.71047 28.2048 6.46058 28.1053 7.14158 27.124C8.32729 25.4149 7.69394 21.5084 7.69394 21.5084L7.69959 21.5028L7.69186 21.5009C7.69186 21.5009 6.22356 17.8291 4.32721 16.9757C3.2368 16.4856 3.40061 16.2714 3.73785 16.1779C3.93259 16.1325 4.13165 16.1082 4.33159 16.1055C4.33159 16.1055 10.3128 15.557 11.1893 18.7174C11.2213 18.8327 11.2537 18.9335 11.2859 19.0236C12.9647 16.2252 16.8123 10.8991 22.549 9.30819ZM22.0854 7.63667C19.2856 8.41312 16.6241 10.0436 14.173 12.4834C13.1134 13.5458 12.1409 14.6917 11.2648 15.9099C11.0573 15.7488 10.8386 15.6027 10.6103 15.4727C9.82237 15.0202 8.84504 14.6977 7.70513 14.5143C6.08866 14.2547 4.58194 14.3453 4.24082 14.3729C3.91389 14.3806 3.58889 14.4254 3.27208 14.5065C2.22738 14.7963 1.80281 15.589 1.7536 16.2327C1.72616 16.6206 1.79484 17.3648 2.59956 17.9849C2.85294 18.1797 3.17492 18.3623 3.61372 18.5587C3.9467 18.7063 4.54205 19.2774 5.22612 20.4377C5.51607 20.9336 5.77686 21.4459 6.00717 21.9722C6.08274 22.5562 6.12321 23.1443 6.12834 23.7332C6.13498 25.0554 5.9204 25.8394 5.71672 26.1322C5.44231 26.5269 5.26033 26.8491 5.14293 27.1463C4.77173 28.0926 5.09418 28.7669 5.32028 29.084C5.69397 29.6104 6.46579 30.0714 7.5105 29.7816C7.82382 29.688 8.12549 29.559 8.40969 29.3973C8.71594 29.2439 10.0546 28.5473 11.3064 27.4918C12.1888 26.7485 12.8615 25.9706 13.3006 25.1738C13.4286 24.9449 13.5402 24.7072 13.6344 24.4625C15.0128 25.0555 16.4366 25.5368 17.892 25.9017C21.2495 26.7306 24.3715 26.7572 27.1705 25.981C28.9406 25.4943 30.6602 24.8398 32.3058 24.0263C33.8682 23.2487 35.2713 22.3574 36.4764 21.377C37.7122 20.3714 38.7075 19.2979 39.4337 18.1861C40.2353 16.9598 40.6929 15.7146 40.7925 14.4854C40.8196 14.1554 40.7516 13.8244 40.5966 13.5318C40.4416 13.2391 40.2061 12.9969 39.9178 12.8339L39.5564 12.6294L39.7467 12.2931C39.9116 12.0018 39.9887 11.6689 39.9686 11.3347C39.9485 11.0005 39.8321 10.6792 39.6334 10.4097C38.9054 9.42177 37.869 8.60393 36.5524 7.97496C35.3595 7.40574 33.9548 7.00417 32.3838 6.7837C30.8537 6.56945 29.199 6.53062 27.4677 6.66965C25.647 6.82087 23.8448 7.14467 22.0854 7.63667V7.63667Z" fill="#434E52"/>
<path d="M38.9181 15.3693C37.8839 18.8886 33.1035 22.5517 26.7541 24.3125C24.516 24.9332 22.2306 24.9181 20.105 24.5783C22.0271 24.4367 23.9305 24.1048 25.7871 23.5875C31.4311 22.021 36.0631 18.9764 38.9181 15.3693Z" fill="#F4AF16"/>
<path d="M32.1227 22.6797C29.7234 21.1274 27.9739 18.7284 27.1967 15.9257C26.4666 13.293 26.6598 10.4862 27.7416 8.02609L27.9594 7.53098L28.4995 7.50855C30.7961 7.41167 32.9512 7.65824 34.7268 8.21888C36.6043 8.81153 38.064 9.75859 38.9479 10.958L39.2814 11.4105L38.3875 12.9905L39.9888 13.8965L39.9435 14.449C39.8238 15.9111 39.0953 17.456 37.8369 18.916C36.6495 20.2943 34.9828 21.6062 33.0221 22.7084L32.5655 22.9651L32.1227 22.6797Z" fill="white"/>
<path d="M28.5356 8.37519C32.9844 8.18997 36.66 9.31723 38.2484 11.4729L37.2041 13.3187L39.0755 14.3775C38.8606 17.0022 36.387 19.8199 32.5937 21.952C30.455 20.5686 28.7799 18.3906 28.0321 15.694C27.3269 13.1512 27.5665 10.5781 28.5352 8.37531M27.3831 6.68771L26.9478 7.67698C26.3761 8.97579 26.0302 10.3626 25.9249 11.7777C25.8151 13.2518 25.962 14.7337 26.3592 16.1575C27.1936 19.1662 29.0722 21.7405 31.6497 23.4081L32.5276 23.9774L33.4406 23.4641C35.4892 22.3109 37.2346 20.9354 38.4871 19.4819C39.1492 18.7132 39.6797 17.9194 40.0643 17.122C40.4825 16.2545 40.7302 15.3789 40.8007 14.5196L40.8911 13.4145L39.926 12.8685L39.5647 12.664L39.7549 12.3278L40.3085 11.3494L39.6444 10.4427C39.1256 9.73872 38.4437 9.1151 37.6174 8.58912C36.8572 8.10511 35.9718 7.70215 34.9859 7.39099C33.1156 6.80173 30.8598 6.54258 28.4635 6.6419L27.3831 6.68771Z" fill="#434E52"/>
<path d="M31.6086 14.2552C31.7267 14.681 32.0091 15.0425 32.3937 15.2601C32.7782 15.4777 33.2335 15.5336 33.6593 15.4155C34.0851 15.2974 34.4466 15.015 34.6642 14.6304C34.8818 14.2458 34.9377 13.7905 34.8196 13.3647C34.7015 12.9389 34.4191 12.5775 34.0345 12.3599C33.6499 12.1423 33.1946 12.0864 32.7688 12.2045C32.343 12.3226 31.9816 12.605 31.764 12.9896C31.5464 13.3741 31.4905 13.8294 31.6086 14.2552Z" fill="#FCCE0B"/>
</g>
<defs>
<clipPath id="clip0_107_38">
<rect width="38.6225" height="25.3788" fill="white" transform="translate(0 10.3215) rotate(-15.5)"/>
</clipPath>
</defs>
</svg>
