<svg width="200" height="200" viewBox="0 0 200 200" fill="none" xmlns="http://www.w3.org/2000/svg">
<path d="M99.7811 113.067C75.6261 113.067 55.976 93.4171 55.976 69.2618C55.976 45.1066 75.6259 25.4567 99.7811 25.4567C123.936 25.4567 143.586 45.1066 143.586 69.2618C143.586 93.4171 123.936 113.067 99.7811 113.067V113.067ZM99.7811 41.8158C84.647 41.8158 72.3352 54.1277 72.3352 69.2618C72.3352 84.396 84.647 96.7078 99.7811 96.7078C114.915 96.7078 127.227 84.396 127.227 69.2618C127.227 54.1277 114.915 41.8158 99.7811 41.8158Z" fill="#FF3EC9"/>
<path d="M99.7811 175.124C95.2654 175.124 91.6017 171.463 91.6017 166.945V104.887C91.6017 100.369 95.2654 96.708 99.7811 96.708C104.297 96.708 107.961 100.369 107.961 104.887V166.945C107.961 171.463 104.297 175.124 99.7811 175.124Z" fill="#FF3EC9"/>
<path d="M130.811 144.094H68.7566C64.2408 144.094 60.5771 140.433 60.5771 135.915C60.5771 131.397 64.2408 127.735 68.7566 127.735H130.811C135.327 127.735 138.991 131.397 138.991 135.915C138.991 140.433 135.327 144.094 130.811 144.094Z" fill="#FF3EC9"/>
</svg>
