<svg width="200" height="200" viewBox="0 0 200 200" fill="none" xmlns="http://www.w3.org/2000/svg">
<path d="M82.8342 159.927C71.2467 159.927 60.3459 155.414 52.1505 147.216C35.2323 130.297 35.2323 102.766 52.1505 85.8454C60.3459 77.6474 71.2465 73.1342 82.8342 73.1342C94.4272 73.1342 105.323 77.65 113.518 85.8454C121.713 94.0434 126.229 104.941 126.229 116.532C126.229 128.122 121.713 139.02 113.518 147.216C105.323 155.411 94.4272 159.927 82.8342 159.927ZM82.8342 89.4931C75.6133 89.4931 68.8237 92.3074 63.7168 97.4118C53.1782 107.956 53.1782 125.108 63.7168 135.649C68.8237 140.756 75.6133 143.568 82.8342 143.568C90.0552 143.568 96.8448 140.756 101.952 135.649C107.059 130.542 109.87 123.753 109.87 116.532C109.87 109.311 107.059 102.521 101.952 97.4118C96.845 92.3048 90.0554 89.4931 82.8342 89.4931V89.4931Z" fill="#51C75B"/>
<path d="M107.735 99.8079C105.642 99.8079 103.549 99.0091 101.952 97.4116C98.7568 94.2165 98.7568 89.0376 101.952 85.8452L131.363 56.4343H122.997C118.481 56.4343 114.817 52.7732 114.817 48.2549C114.817 43.7365 118.481 40.0754 122.997 40.0754H151.114C154.421 40.0754 157.403 42.0697 158.67 45.1238C159.938 48.1805 159.235 51.7003 156.897 54.0382L113.518 97.4116C111.921 99.0091 109.828 99.8079 107.735 99.8079V99.8079Z" fill="#51C75B"/>
<path d="M151.114 56.4343H122.997C118.481 56.4343 114.818 52.7732 114.818 48.2549C114.818 43.7365 118.481 40.0754 122.997 40.0754H151.114C155.63 40.0754 159.293 43.7365 159.293 48.2549C159.293 52.7732 155.63 56.4343 151.114 56.4343Z" fill="#51C75B"/>
<path d="M152.317 85.7521C147.802 85.7521 144.138 82.0909 144.138 77.5726V49.4583C144.138 44.9399 147.802 41.2788 152.317 41.2788C156.833 41.2788 160.497 44.9399 160.497 49.4583V77.5726C160.497 82.0909 156.833 85.7521 152.317 85.7521Z" fill="#51C75B"/>
<path d="M152.317 85.7521C147.802 85.7521 144.138 82.0909 144.138 77.5726V49.4583C144.138 44.9399 147.802 41.2788 152.317 41.2788C156.833 41.2788 160.497 44.9399 160.497 49.4583V77.5726C160.497 82.0909 156.833 85.7521 152.317 85.7521Z" fill="#51C75B"/>
</svg>
