<?xml version="1.0" standalone="no"?><!DOCTYPE svg PUBLIC "-//W3C//DTD SVG 1.1//EN" "http://www.w3.org/Graphics/SVG/1.1/DTD/svg11.dtd"><svg class="icon" width="32px" height="32.00px" viewBox="0 0 1024 1024" version="1.1" xmlns="http://www.w3.org/2000/svg"><path d="M895.473765 127.981836H127.937834c-35.322483 0-63.956637 28.634154-63.956637 63.956638v639.614469c0 35.322483 28.634154 63.956637 63.956637 63.956638h767.535931c35.322483 0 63.956637-28.634154 63.956637-63.956638V191.938474c0-35.322483-28.634154-63.956637-63.956637-63.956638z m-735.809345 63.960731h704.082759c17.520025 0 31.722492 14.202467 31.722493 31.722492v390.218376L684.703387 393.113309c-6.221702-6.221702-14.383592-9.31618-22.538319-9.28855-8.153704-0.027629-16.316617 3.067872-22.538319 9.28855L409.426857 632.757295 305.58993 581.128427a31.564903 31.564903 0 0 0-17.792225-5.421476c-8.138354-0.01535-16.281825 3.080152-22.491247 9.289573L127.941927 722.361055V223.665059c0-17.520025 14.202467-31.722492 31.722493-31.722492z m735.805252 607.883791c0 17.520025-14.202467 31.722492-31.722493 31.722492H159.66442c-13.644765 0-25.27464-8.616238-29.753652-20.702508l164.476006-164.476005 102.55984 50.993394a31.624255 31.624255 0 0 0 19.172665 6.257518c9.833973 0.068562 19.518542-4.426823 25.742291-12.84454L664.9853 458.208886l230.484372 236.126882v105.49059z"  /><path d="M287.843754 447.784466c52.986795 0 95.941096-42.954301 95.941096-95.941096s-42.954301-95.941096-95.941096-95.941096-95.941096 42.954301-95.941096 95.941096 42.954301 95.941096 95.941096 95.941096z m0-127.921461c17.662265 0 31.980365 14.3181 31.980365 31.980365s-14.3181 31.980365-31.980365 31.980366c-17.662265 0-31.980365-14.3181-31.980365-31.980366s14.3181-31.980365 31.980365-31.980365z"  /></svg>